<?xml version="1.0" encoding="UTF-8" standalone="no"?>
<!DOCTYPE svg PUBLIC "-//W3C//DTD SVG 1.1//EN"
 "http://www.w3.org/Graphics/SVG/1.1/DTD/svg11.dtd">
<!-- Generated by graphviz version 2.36.0 (20140111.2315)
 -->
<!-- Title: g Pages: 1 -->
<svg width="1645pt" height="1737pt"
 viewBox="0.00 0.00 1644.93 1737.00" xmlns="http://www.w3.org/2000/svg" xmlns:xlink="http://www.w3.org/1999/xlink">
<g id="graph0" class="graph" transform="scale(1 1) rotate(0) translate(4 1733)">
<title>g</title>
<polygon fill="white" stroke="none" points="-4,4 -4,-1733 1640.93,-1733 1640.93,4 -4,4"/>
<text text-anchor="middle" x="818.466" y="-7.8" font-family="Times,serif" font-size="14.00">foxystripe</text>
<!-- OrderHistoryPage -->
<g id="node1" class="node"><title>OrderHistoryPage</title>
<polygon fill="#d4d6d8" stroke="none" points="20.9321,-1477 20.9321,-1506 167.932,-1506 167.932,-1477 20.9321,-1477"/>
<polygon fill="none" stroke="black" points="20.9321,-1477 20.9321,-1506 167.932,-1506 167.932,-1477 20.9321,-1477"/>
<text text-anchor="start" x="26.9321" y="-1488.7" font-family="Helvetica Bold" font-weight="bold" font-size="16.00" fill="#0073c1">OrderHistoryPage</text>
</g>
<!-- Page -->
<g id="node11" class="node"><title>Page</title>
<text text-anchor="middle" x="199.932" y="-1238.2" font-family="Times,serif" font-size="16.00">Page</text>
</g>
<!-- OrderHistoryPage&#45;&gt;Page -->
<g id="edge1" class="edge"><title>OrderHistoryPage&#45;&gt;Page</title>
<path fill="none" stroke="black" stroke-dasharray="1,5" d="M95.7689,-1473.88C99.5015,-1443.74 109.676,-1379.78 132.932,-1331 144.082,-1307.61 162.09,-1284.44 176.629,-1267.74"/>
<polygon fill="black" stroke="black" points="179.404,-1269.89 183.443,-1260.09 174.177,-1265.23 179.404,-1269.89"/>
<text text-anchor="middle" x="161.432" y="-1335.3" font-family="Times,serif" font-size="14.00">extends</text>
</g>
<!-- ProductHolder -->
<g id="node2" class="node"><title>ProductHolder</title>
<polygon fill="#d4d6d8" stroke="none" points="565.932,-1699 565.932,-1728 790.932,-1728 790.932,-1699 565.932,-1699"/>
<polygon fill="none" stroke="black" points="565.932,-1699 565.932,-1728 790.932,-1728 790.932,-1699 565.932,-1699"/>
<text text-anchor="start" x="623.932" y="-1710.7" font-family="Helvetica Bold" font-weight="bold" font-size="16.00" fill="#0073c1">ProductHolder</text>
<polygon fill="none" stroke="black" points="565.932,-1671 565.932,-1699 697.932,-1699 697.932,-1671 565.932,-1671"/>
<text text-anchor="start" x="571.432" y="-1681.2" font-family="Helvetica Bold" font-size="16.00">PreviewImageID</text>
<polygon fill="none" stroke="black" points="697.932,-1671 697.932,-1699 790.932,-1699 790.932,-1671 697.932,-1671"/>
<text text-anchor="start" x="702.932" y="-1681.2" font-family="Helvetica Italic" font-size="16.00">ForeignKey</text>
</g>
<!-- ProductPage -->
<g id="node3" class="node"><title>ProductPage</title>
<polygon fill="#d4d6d8" stroke="none" points="559.932,-1589 559.932,-1618 795.932,-1618 795.932,-1589 559.932,-1589"/>
<polygon fill="none" stroke="black" points="559.932,-1589 559.932,-1618 795.932,-1618 795.932,-1589 559.932,-1589"/>
<text text-anchor="start" x="628.432" y="-1600.7" font-family="Helvetica Bold" font-weight="bold" font-size="16.00" fill="#0073c1">ProductPage</text>
<polygon fill="none" stroke="black" points="559.932,-1561 559.932,-1589 691.932,-1589 691.932,-1561 559.932,-1561"/>
<text text-anchor="start" x="606.432" y="-1571.2" font-family="Helvetica Bold" font-size="16.00">Price</text>
<polygon fill="none" stroke="black" points="691.932,-1561 691.932,-1589 795.932,-1589 795.932,-1561 691.932,-1561"/>
<text text-anchor="start" x="710.932" y="-1571.2" font-family="Helvetica Italic" font-size="16.00">Currency</text>
<polygon fill="none" stroke="black" points="559.932,-1533 559.932,-1561 691.932,-1561 691.932,-1533 559.932,-1533"/>
<text text-anchor="start" x="598.932" y="-1543.2" font-family="Helvetica Bold" font-size="16.00">Weight</text>
<polygon fill="none" stroke="black" points="691.932,-1533 691.932,-1561 795.932,-1561 795.932,-1533 691.932,-1533"/>
<text text-anchor="start" x="725.932" y="-1543.2" font-family="Helvetica Italic" font-size="16.00">Float</text>
<polygon fill="none" stroke="black" points="559.932,-1505 559.932,-1533 691.932,-1533 691.932,-1505 559.932,-1505"/>
<text text-anchor="start" x="605.932" y="-1515.2" font-family="Helvetica Bold" font-size="16.00">Code</text>
<polygon fill="none" stroke="black" points="691.932,-1505 691.932,-1533 795.932,-1533 795.932,-1505 691.932,-1505"/>
<text text-anchor="start" x="696.932" y="-1515.2" font-family="Helvetica Italic" font-size="16.00">Varchar(100)</text>
<polygon fill="none" stroke="black" points="559.932,-1477 559.932,-1505 691.932,-1505 691.932,-1477 559.932,-1477"/>
<text text-anchor="start" x="581.432" y="-1487.2" font-family="Helvetica Bold" font-size="16.00">ReceiptTitle</text>
<polygon fill="none" stroke="black" points="691.932,-1477 691.932,-1505 795.932,-1505 795.932,-1477 691.932,-1477"/>
<text text-anchor="start" x="728.932" y="-1487.2" font-family="Helvetica Italic" font-size="16.00">Text</text>
<polygon fill="none" stroke="black" points="559.932,-1449 559.932,-1477 691.932,-1477 691.932,-1449 559.932,-1449"/>
<text text-anchor="start" x="591.932" y="-1459.2" font-family="Helvetica Bold" font-size="16.00">Featured</text>
<polygon fill="none" stroke="black" points="691.932,-1449 691.932,-1477 795.932,-1477 795.932,-1449 691.932,-1449"/>
<text text-anchor="start" x="713.932" y="-1459.2" font-family="Helvetica Italic" font-size="16.00">Boolean</text>
<polygon fill="none" stroke="black" points="559.932,-1421 559.932,-1449 691.932,-1449 691.932,-1421 559.932,-1421"/>
<text text-anchor="start" x="591.932" y="-1431.2" font-family="Helvetica Bold" font-size="16.00">Available</text>
<polygon fill="none" stroke="black" points="691.932,-1421 691.932,-1449 795.932,-1449 795.932,-1421 691.932,-1421"/>
<text text-anchor="start" x="713.932" y="-1431.2" font-family="Helvetica Italic" font-size="16.00">Boolean</text>
<polygon fill="none" stroke="black" points="559.932,-1393 559.932,-1421 691.932,-1421 691.932,-1393 559.932,-1393"/>
<text text-anchor="start" x="565.432" y="-1403.2" font-family="Helvetica Bold" font-size="16.00">PreviewImageID</text>
<polygon fill="none" stroke="black" points="691.932,-1393 691.932,-1421 795.932,-1421 795.932,-1393 691.932,-1393"/>
<text text-anchor="start" x="702.432" y="-1403.2" font-family="Helvetica Italic" font-size="16.00">ForeignKey</text>
<polygon fill="none" stroke="black" points="559.932,-1365 559.932,-1393 691.932,-1393 691.932,-1365 559.932,-1365"/>
<text text-anchor="start" x="583.432" y="-1375.2" font-family="Helvetica Bold" font-size="16.00">CategoryID</text>
<polygon fill="none" stroke="black" points="691.932,-1365 691.932,-1393 795.932,-1393 795.932,-1365 691.932,-1365"/>
<text text-anchor="start" x="702.432" y="-1375.2" font-family="Helvetica Italic" font-size="16.00">ForeignKey</text>
</g>
<!-- ProductHolder&#45;&gt;ProductPage -->
<g id="edge4" class="edge"><title>ProductHolder&#45;&gt;ProductPage</title>
<path fill="none" stroke="black" d="M677.932,-1660.9C677.932,-1651.3 677.932,-1640.44 677.932,-1628.97"/>
<polygon fill="black" stroke="black" points="674.432,-1661.22 677.932,-1671.22 681.432,-1661.22 674.432,-1661.22"/>
<polygon fill="black" stroke="black" points="681.432,-1628.74 677.932,-1618.74 674.432,-1628.74 681.432,-1628.74"/>
<text text-anchor="middle" x="760.932" y="-1641.3" font-family="Times,serif" font-size="14.00">Products (many_many)</text>
</g>
<!-- ProductHolder&#45;&gt;Page -->
<g id="edge3" class="edge"><title>ProductHolder&#45;&gt;Page</title>
<path fill="none" stroke="black" stroke-dasharray="1,5" d="M595.442,-1671.34C562.309,-1658.19 524.746,-1640.58 493.932,-1619 357.454,-1523.42 322.47,-1489.39 235.932,-1347 221.264,-1322.87 211.533,-1291.93 205.927,-1270.09"/>
<polygon fill="black" stroke="black" points="209.277,-1269.06 203.503,-1260.17 202.477,-1270.72 209.277,-1269.06"/>
<text text-anchor="middle" x="522.432" y="-1488.3" font-family="Times,serif" font-size="14.00">extends</text>
</g>
<!-- Image -->
<g id="node12" class="node"><title>Image</title>
<text text-anchor="middle" x="1361.93" y="-806.2" font-family="Times,serif" font-size="16.00">Image</text>
</g>
<!-- ProductHolder&#45;&gt;Image -->
<g id="edge2" class="edge"><title>ProductHolder&#45;&gt;Image</title>
<path fill="none" stroke="black" d="M790.229,-1685.16C975.426,-1655.39 1338.02,-1566.02 1474.93,-1313 1564.61,-1147.28 1429.8,-913.855 1379.55,-836.795"/>
<polygon fill="black" stroke="black" points="1382.29,-834.6 1373.86,-828.187 1376.45,-838.46 1382.29,-834.6"/>
<text text-anchor="middle" x="1548.93" y="-1335.3" font-family="Times,serif" font-size="14.00">PreviewImage (has_one)</text>
</g>
<!-- OptionItem -->
<g id="node5" class="node"><title>OptionItem</title>
<polygon fill="#d4d6d8" stroke="none" points="674.932,-1044 674.932,-1073 951.932,-1073 951.932,-1044 674.932,-1044"/>
<polygon fill="none" stroke="black" points="674.932,-1044 674.932,-1073 951.932,-1073 951.932,-1044 674.932,-1044"/>
<text text-anchor="start" x="771.932" y="-1055.7" font-family="Helvetica Bold" font-weight="bold" font-size="16.00" fill="#0073c1">OptionItem</text>
<polygon fill="none" stroke="black" points="674.932,-1016 674.932,-1044 858.932,-1044 858.932,-1016 674.932,-1016"/>
<text text-anchor="start" x="750.932" y="-1026.2" font-family="Helvetica Bold" font-size="16.00">Title</text>
<polygon fill="none" stroke="black" points="858.932,-1016 858.932,-1044 951.932,-1044 951.932,-1016 858.932,-1016"/>
<text text-anchor="start" x="890.432" y="-1026.2" font-family="Helvetica Italic" font-size="16.00">Text</text>
<polygon fill="none" stroke="black" points="674.932,-988 674.932,-1016 858.932,-1016 858.932,-988 674.932,-988"/>
<text text-anchor="start" x="709.932" y="-998.2" font-family="Helvetica Bold" font-size="16.00">WeightModifier</text>
<polygon fill="none" stroke="black" points="858.932,-988 858.932,-1016 951.932,-1016 951.932,-988 858.932,-988"/>
<text text-anchor="start" x="896.932" y="-998.2" font-family="Helvetica Italic" font-size="16.00">Int</text>
<polygon fill="none" stroke="black" points="674.932,-960 674.932,-988 858.932,-988 858.932,-960 674.932,-960"/>
<text text-anchor="start" x="716.932" y="-970.2" font-family="Helvetica Bold" font-size="16.00">CodeModifier</text>
<polygon fill="none" stroke="black" points="858.932,-960 858.932,-988 951.932,-988 951.932,-960 858.932,-960"/>
<text text-anchor="start" x="890.432" y="-970.2" font-family="Helvetica Italic" font-size="16.00">Text</text>
<polygon fill="none" stroke="black" points="674.932,-932 674.932,-960 858.932,-960 858.932,-932 674.932,-932"/>
<text text-anchor="start" x="717.432" y="-942.2" font-family="Helvetica Bold" font-size="16.00">PriceModifier</text>
<polygon fill="none" stroke="black" points="858.932,-932 858.932,-960 951.932,-960 951.932,-932 858.932,-932"/>
<text text-anchor="start" x="872.432" y="-942.2" font-family="Helvetica Italic" font-size="16.00">Currency</text>
<polygon fill="none" stroke="black" points="674.932,-850 674.932,-932 858.932,-932 858.932,-850 674.932,-850"/>
<text text-anchor="start" x="685.432" y="-887.2" font-family="Helvetica Bold" font-size="16.00">WeightModifierAction</text>
<polygon fill="none" stroke="black" points="858.932,-850 858.932,-932 951.932,-932 951.932,-850 858.932,-850"/>
<text text-anchor="start" x="863.932" y="-914.2" font-family="Helvetica Italic" font-size="16.00">Enum(&#39;Add,</text>
<text text-anchor="start" x="873.432" y="-896.2" font-family="Helvetica Italic" font-size="16.00">Subtract,</text>
<text text-anchor="start" x="889.932" y="-878.2" font-family="Helvetica Italic" font-size="16.00">Set&#39;,</text>
<text text-anchor="start" x="885.432" y="-860.2" font-family="Helvetica Italic" font-size="16.00">&#39;Add&#39;)</text>
<polygon fill="none" stroke="black" points="674.932,-768 674.932,-850 858.932,-850 858.932,-768 674.932,-768"/>
<text text-anchor="start" x="692.432" y="-805.2" font-family="Helvetica Bold" font-size="16.00">CodeModifierAction</text>
<polygon fill="none" stroke="black" points="858.932,-768 858.932,-850 951.932,-850 951.932,-768 858.932,-768"/>
<text text-anchor="start" x="863.932" y="-832.2" font-family="Helvetica Italic" font-size="16.00">Enum(&#39;Add,</text>
<text text-anchor="start" x="873.432" y="-814.2" font-family="Helvetica Italic" font-size="16.00">Subtract,</text>
<text text-anchor="start" x="889.932" y="-796.2" font-family="Helvetica Italic" font-size="16.00">Set&#39;,</text>
<text text-anchor="start" x="885.432" y="-778.2" font-family="Helvetica Italic" font-size="16.00">&#39;Add&#39;)</text>
<polygon fill="none" stroke="black" points="674.932,-686 674.932,-768 858.932,-768 858.932,-686 674.932,-686"/>
<text text-anchor="start" x="692.932" y="-723.2" font-family="Helvetica Bold" font-size="16.00">PriceModifierAction</text>
<polygon fill="none" stroke="black" points="858.932,-686 858.932,-768 951.932,-768 951.932,-686 858.932,-686"/>
<text text-anchor="start" x="863.932" y="-750.2" font-family="Helvetica Italic" font-size="16.00">Enum(&#39;Add,</text>
<text text-anchor="start" x="873.432" y="-732.2" font-family="Helvetica Italic" font-size="16.00">Subtract,</text>
<text text-anchor="start" x="889.932" y="-714.2" font-family="Helvetica Italic" font-size="16.00">Set&#39;,</text>
<text text-anchor="start" x="885.432" y="-696.2" font-family="Helvetica Italic" font-size="16.00">&#39;Add&#39;)</text>
<polygon fill="none" stroke="black" points="674.932,-658 674.932,-686 858.932,-686 858.932,-658 674.932,-658"/>
<text text-anchor="start" x="732.932" y="-668.2" font-family="Helvetica Bold" font-size="16.00">Available</text>
<polygon fill="none" stroke="black" points="858.932,-658 858.932,-686 951.932,-686 951.932,-658 858.932,-658"/>
<text text-anchor="start" x="875.432" y="-668.2" font-family="Helvetica Italic" font-size="16.00">Boolean</text>
<polygon fill="none" stroke="black" points="674.932,-630 674.932,-658 858.932,-658 858.932,-630 674.932,-630"/>
<text text-anchor="start" x="729.432" y="-640.2" font-family="Helvetica Bold" font-size="16.00">SortOrder</text>
<polygon fill="none" stroke="black" points="858.932,-630 858.932,-658 951.932,-658 951.932,-630 858.932,-630"/>
<text text-anchor="start" x="896.932" y="-640.2" font-family="Helvetica Italic" font-size="16.00">Int</text>
<polygon fill="none" stroke="black" points="674.932,-602 674.932,-630 858.932,-630 858.932,-602 674.932,-602"/>
<text text-anchor="start" x="728.932" y="-612.2" font-family="Helvetica Bold" font-size="16.00">ProductID</text>
<polygon fill="none" stroke="black" points="858.932,-602 858.932,-630 951.932,-630 951.932,-602 858.932,-602"/>
<text text-anchor="start" x="863.932" y="-612.2" font-family="Helvetica Italic" font-size="16.00">ForeignKey</text>
<polygon fill="none" stroke="black" points="674.932,-574 674.932,-602 858.932,-602 858.932,-574 674.932,-574"/>
<text text-anchor="start" x="680.432" y="-584.2" font-family="Helvetica Bold" font-size="16.00">ProductOptionGroupID</text>
<polygon fill="none" stroke="black" points="858.932,-574 858.932,-602 951.932,-602 951.932,-574 858.932,-574"/>
<text text-anchor="start" x="863.932" y="-584.2" font-family="Helvetica Italic" font-size="16.00">ForeignKey</text>
<polygon fill="none" stroke="black" points="674.932,-546 674.932,-574 858.932,-574 858.932,-546 674.932,-546"/>
<text text-anchor="start" x="724.432" y="-556.2" font-family="Helvetica Bold" font-size="16.00">CategoryID</text>
<polygon fill="none" stroke="black" points="858.932,-546 858.932,-574 951.932,-574 951.932,-546 858.932,-546"/>
<text text-anchor="start" x="863.932" y="-556.2" font-family="Helvetica Italic" font-size="16.00">ForeignKey</text>
</g>
<!-- ProductPage&#45;&gt;OptionItem -->
<g id="edge9" class="edge"><title>ProductPage&#45;&gt;OptionItem</title>
<path fill="none" stroke="black" d="M681.933,-1365.13C685.763,-1282.05 692.948,-1185.85 705.932,-1171 729.919,-1143.56 762.062,-1180.54 785.932,-1153 803.573,-1132.65 815.824,-1108.81 824.039,-1083.36"/>
<polygon fill="black" stroke="black" points="827.467,-1084.12 826.992,-1073.53 820.763,-1082.1 827.467,-1084.12"/>
<text text-anchor="middle" x="805.432" y="-1238.3" font-family="Times,serif" font-size="14.00">ProductOptions (has_many)</text>
</g>
<!-- OrderDetail -->
<g id="node8" class="node"><title>OrderDetail</title>
<polygon fill="#d4d6d8" stroke="none" points="244.932,-1283 244.932,-1312 424.932,-1312 424.932,-1283 244.932,-1283"/>
<polygon fill="none" stroke="black" points="244.932,-1283 244.932,-1312 424.932,-1312 424.932,-1283 244.932,-1283"/>
<text text-anchor="start" x="292.432" y="-1294.7" font-family="Helvetica Bold" font-weight="bold" font-size="16.00" fill="#0073c1">OrderDetail</text>
<polygon fill="none" stroke="black" points="244.932,-1255 244.932,-1283 331.932,-1283 331.932,-1255 244.932,-1255"/>
<text text-anchor="start" x="256.432" y="-1265.2" font-family="Helvetica Bold" font-size="16.00">Quantity</text>
<polygon fill="none" stroke="black" points="331.932,-1255 331.932,-1283 424.932,-1283 424.932,-1255 331.932,-1255"/>
<text text-anchor="start" x="369.932" y="-1265.2" font-family="Helvetica Italic" font-size="16.00">Int</text>
<polygon fill="none" stroke="black" points="244.932,-1227 244.932,-1255 331.932,-1255 331.932,-1227 244.932,-1227"/>
<text text-anchor="start" x="268.932" y="-1237.2" font-family="Helvetica Bold" font-size="16.00">Price</text>
<polygon fill="none" stroke="black" points="331.932,-1227 331.932,-1255 424.932,-1255 424.932,-1227 331.932,-1227"/>
<text text-anchor="start" x="345.432" y="-1237.2" font-family="Helvetica Italic" font-size="16.00">Currency</text>
<polygon fill="none" stroke="black" points="244.932,-1199 244.932,-1227 331.932,-1227 331.932,-1199 244.932,-1199"/>
<text text-anchor="start" x="250.432" y="-1209.2" font-family="Helvetica Bold" font-size="16.00">ProductID</text>
<polygon fill="none" stroke="black" points="331.932,-1199 331.932,-1227 424.932,-1227 424.932,-1199 331.932,-1199"/>
<text text-anchor="start" x="336.932" y="-1209.2" font-family="Helvetica Italic" font-size="16.00">ForeignKey</text>
<polygon fill="none" stroke="black" points="244.932,-1171 244.932,-1199 331.932,-1199 331.932,-1171 244.932,-1171"/>
<text text-anchor="start" x="259.432" y="-1181.2" font-family="Helvetica Bold" font-size="16.00">OrderID</text>
<polygon fill="none" stroke="black" points="331.932,-1171 331.932,-1199 424.932,-1199 424.932,-1171 331.932,-1171"/>
<text text-anchor="start" x="336.932" y="-1181.2" font-family="Helvetica Italic" font-size="16.00">ForeignKey</text>
</g>
<!-- ProductPage&#45;&gt;OrderDetail -->
<g id="edge10" class="edge"><title>ProductPage&#45;&gt;OrderDetail</title>
<path fill="none" stroke="black" d="M559.875,-1410.24C530.627,-1389.85 499.49,-1367.84 470.932,-1347 458.621,-1338.02 445.787,-1328.46 433.132,-1318.92"/>
<polygon fill="black" stroke="black" points="434.937,-1315.9 424.849,-1312.66 430.717,-1321.48 434.937,-1315.9"/>
<text text-anchor="middle" x="560.432" y="-1335.3" font-family="Times,serif" font-size="14.00">OrderDetails (has_many)</text>
</g>
<!-- ProductCategory -->
<g id="node9" class="node"><title>ProductCategory</title>
<polygon fill="#d4d6d8" stroke="none" points="591.932,-293 591.932,-322 732.932,-322 732.932,-293 591.932,-293"/>
<polygon fill="none" stroke="black" points="591.932,-293 591.932,-322 732.932,-322 732.932,-293 591.932,-293"/>
<text text-anchor="start" x="597.432" y="-304.7" font-family="Helvetica Bold" font-weight="bold" font-size="16.00" fill="#0073c1">ProductCategory</text>
<polygon fill="none" stroke="black" points="591.932,-265 591.932,-293 667.932,-293 667.932,-265 591.932,-265"/>
<text text-anchor="start" x="613.932" y="-275.2" font-family="Helvetica Bold" font-size="16.00">Title</text>
<polygon fill="none" stroke="black" points="667.932,-265 667.932,-293 732.932,-293 732.932,-265 667.932,-265"/>
<text text-anchor="start" x="685.432" y="-275.2" font-family="Helvetica Italic" font-size="16.00">Text</text>
<polygon fill="none" stroke="black" points="591.932,-237 591.932,-265 667.932,-265 667.932,-237 591.932,-237"/>
<text text-anchor="start" x="609.932" y="-247.2" font-family="Helvetica Bold" font-size="16.00">Code</text>
<polygon fill="none" stroke="black" points="667.932,-237 667.932,-265 732.932,-265 732.932,-237 667.932,-237"/>
<text text-anchor="start" x="685.432" y="-247.2" font-family="Helvetica Italic" font-size="16.00">Text</text>
</g>
<!-- ProductPage&#45;&gt;ProductCategory -->
<g id="edge6" class="edge"><title>ProductPage&#45;&gt;ProductCategory</title>
<path fill="none" stroke="black" d="M661.792,-1365.24C654.435,-1301.73 646.568,-1223.4 642.932,-1153 626.874,-842.02 648.875,-467.974 658.152,-332.85"/>
<polygon fill="black" stroke="black" points="661.65,-333 658.85,-322.781 654.666,-332.515 661.65,-333"/>
<text text-anchor="middle" x="712.432" y="-1141.3" font-family="Times,serif" font-size="14.00">Category (has_one)</text>
</g>
<!-- ProductImage -->
<g id="node10" class="node"><title>ProductImage</title>
<polygon fill="#d4d6d8" stroke="none" points="1287.93,-1283 1287.93,-1312 1466.93,-1312 1466.93,-1283 1287.93,-1283"/>
<polygon fill="none" stroke="black" points="1287.93,-1283 1287.93,-1312 1466.93,-1312 1466.93,-1283 1287.93,-1283"/>
<text text-anchor="start" x="1324.43" y="-1294.7" font-family="Helvetica Bold" font-weight="bold" font-size="16.00" fill="#0073c1">ProductImage</text>
<polygon fill="none" stroke="black" points="1287.93,-1255 1287.93,-1283 1373.93,-1283 1373.93,-1255 1287.93,-1255"/>
<text text-anchor="start" x="1314.93" y="-1265.2" font-family="Helvetica Bold" font-size="16.00">Title</text>
<polygon fill="none" stroke="black" points="1373.93,-1255 1373.93,-1283 1466.93,-1283 1466.93,-1255 1373.93,-1255"/>
<text text-anchor="start" x="1405.43" y="-1265.2" font-family="Helvetica Italic" font-size="16.00">Text</text>
<polygon fill="none" stroke="black" points="1287.93,-1227 1287.93,-1255 1373.93,-1255 1373.93,-1227 1287.93,-1227"/>
<text text-anchor="start" x="1293.43" y="-1237.2" font-family="Helvetica Bold" font-size="16.00">SortOrder</text>
<polygon fill="none" stroke="black" points="1373.93,-1227 1373.93,-1255 1466.93,-1255 1466.93,-1227 1373.93,-1227"/>
<text text-anchor="start" x="1411.93" y="-1237.2" font-family="Helvetica Italic" font-size="16.00">Int</text>
<polygon fill="none" stroke="black" points="1287.93,-1199 1287.93,-1227 1373.93,-1227 1373.93,-1199 1287.93,-1199"/>
<text text-anchor="start" x="1300.43" y="-1209.2" font-family="Helvetica Bold" font-size="16.00">ImageID</text>
<polygon fill="none" stroke="black" points="1373.93,-1199 1373.93,-1227 1466.93,-1227 1466.93,-1199 1373.93,-1199"/>
<text text-anchor="start" x="1378.93" y="-1209.2" font-family="Helvetica Italic" font-size="16.00">ForeignKey</text>
<polygon fill="none" stroke="black" points="1287.93,-1171 1287.93,-1199 1373.93,-1199 1373.93,-1171 1287.93,-1171"/>
<text text-anchor="start" x="1298.43" y="-1181.2" font-family="Helvetica Bold" font-size="16.00">ParentID</text>
<polygon fill="none" stroke="black" points="1373.93,-1171 1373.93,-1199 1466.93,-1199 1466.93,-1171 1373.93,-1171"/>
<text text-anchor="start" x="1378.93" y="-1181.2" font-family="Helvetica Italic" font-size="16.00">ForeignKey</text>
</g>
<!-- ProductPage&#45;&gt;ProductImage -->
<g id="edge8" class="edge"><title>ProductPage&#45;&gt;ProductImage</title>
<path fill="none" stroke="black" d="M796.094,-1466.76C918.995,-1439.02 1115.14,-1387.59 1272.93,-1313 1274.74,-1312.15 1276.55,-1311.26 1278.37,-1310.35"/>
<polygon fill="black" stroke="black" points="1280.2,-1313.35 1287.43,-1305.61 1276.95,-1307.14 1280.2,-1313.35"/>
<text text-anchor="middle" x="1324.93" y="-1335.3" font-family="Times,serif" font-size="14.00">ProductImages (has_many)</text>
</g>
<!-- ProductPage&#45;&gt;Page -->
<g id="edge7" class="edge"><title>ProductPage&#45;&gt;Page</title>
<path fill="none" stroke="black" stroke-dasharray="1,5" d="M559.549,-1476C466.523,-1458.79 338.618,-1422.5 251.932,-1347 228.595,-1326.67 214.56,-1293.39 207.055,-1269.96"/>
<polygon fill="black" stroke="black" points="210.376,-1268.85 204.144,-1260.28 203.672,-1270.87 210.376,-1268.85"/>
<text text-anchor="middle" x="280.432" y="-1335.3" font-family="Times,serif" font-size="14.00">extends</text>
</g>
<!-- ProductPage&#45;&gt;Image -->
<g id="edge5" class="edge"><title>ProductPage&#45;&gt;Image</title>
<path fill="none" stroke="black" d="M796.375,-1466.23C883.887,-1441.84 999.297,-1395.8 1067.93,-1313 1109.41,-1262.96 1075.68,-1230.01 1102.93,-1171 1167.24,-1031.76 1288.29,-891.236 1338.84,-835.736"/>
<polygon fill="black" stroke="black" points="1341.59,-837.912 1345.77,-828.175 1336.43,-833.181 1341.59,-837.912"/>
<text text-anchor="middle" x="1190.93" y="-1238.3" font-family="Times,serif" font-size="14.00">PreviewImage (has_one)</text>
</g>
<!-- OptionGroup -->
<g id="node4" class="node"><title>OptionGroup</title>
<polygon fill="#d4d6d8" stroke="none" points="767.932,-279 767.932,-308 914.932,-308 914.932,-279 767.932,-279"/>
<polygon fill="none" stroke="black" points="767.932,-279 767.932,-308 914.932,-308 914.932,-279 767.932,-279"/>
<text text-anchor="start" x="792.432" y="-290.7" font-family="Helvetica Bold" font-weight="bold" font-size="16.00" fill="#0073c1">OptionGroup</text>
<polygon fill="none" stroke="black" points="767.932,-251 767.932,-279 810.932,-279 810.932,-251 767.932,-251"/>
<text text-anchor="start" x="773.432" y="-261.2" font-family="Helvetica Bold" font-size="16.00">Title</text>
<polygon fill="none" stroke="black" points="810.932,-251 810.932,-279 914.932,-279 914.932,-251 810.932,-251"/>
<text text-anchor="start" x="815.932" y="-261.2" font-family="Helvetica Italic" font-size="16.00">Varchar(100)</text>
</g>
<!-- OptionItem&#45;&gt;ProductPage -->
<g id="edge11" class="edge"><title>OptionItem&#45;&gt;ProductPage</title>
<path fill="none" stroke="black" d="M921.464,-1073.56C938.73,-1153.32 940.795,-1239.3 904.932,-1313 883.194,-1357.67 844.221,-1394.45 804.632,-1422.74"/>
<polygon fill="black" stroke="black" points="802.371,-1420.05 796.181,-1428.65 806.382,-1425.79 802.371,-1420.05"/>
<text text-anchor="middle" x="998.932" y="-1238.3" font-family="Times,serif" font-size="14.00">Product (has_one)</text>
</g>
<!-- OptionItem&#45;&gt;OptionGroup -->
<g id="edge12" class="edge"><title>OptionItem&#45;&gt;OptionGroup</title>
<path fill="none" stroke="black" d="M826.871,-546.16C831.597,-457.031 836.333,-367.725 838.923,-318.88"/>
<polygon fill="black" stroke="black" points="842.423,-318.969 839.458,-308.798 835.433,-318.599 842.423,-318.969"/>
<text text-anchor="middle" x="942.432" y="-471.3" font-family="Times,serif" font-size="14.00">ProductOptionGroup (has_one)</text>
</g>
<!-- OptionItem&#45;&gt;ProductCategory -->
<g id="edge13" class="edge"><title>OptionItem&#45;&gt;ProductCategory</title>
<path fill="none" stroke="black" d="M706.046,-546.056C699.314,-524.911 693.158,-503.718 687.932,-483 675.256,-432.746 668.572,-373.817 665.174,-332.622"/>
<polygon fill="black" stroke="black" points="668.655,-332.24 664.38,-322.547 661.677,-332.791 668.655,-332.24"/>
<text text-anchor="middle" x="757.432" y="-471.3" font-family="Times,serif" font-size="14.00">Category (has_one)</text>
</g>
<!-- Order -->
<g id="node6" class="node"><title>Order</title>
<polygon fill="#d4d6d8" stroke="none" points="53.9321,-1089 53.9321,-1118 427.932,-1118 427.932,-1089 53.9321,-1089"/>
<polygon fill="none" stroke="black" points="53.9321,-1089 53.9321,-1118 427.932,-1118 427.932,-1089 53.9321,-1089"/>
<text text-anchor="start" x="219.432" y="-1100.7" font-family="Helvetica Bold" font-weight="bold" font-size="16.00" fill="#0073c1">Order</text>
<polygon fill="none" stroke="black" points="53.9321,-1061 53.9321,-1089 323.932,-1089 323.932,-1061 53.9321,-1061"/>
<text text-anchor="start" x="155.432" y="-1071.2" font-family="Helvetica Bold" font-size="16.00">Order_ID</text>
<polygon fill="none" stroke="black" points="323.932,-1061 323.932,-1089 427.932,-1089 427.932,-1061 323.932,-1061"/>
<text text-anchor="start" x="367.432" y="-1071.2" font-family="Helvetica Italic" font-size="16.00">Int</text>
<polygon fill="none" stroke="black" points="53.9321,-1033 53.9321,-1061 323.932,-1061 323.932,-1033 53.9321,-1033"/>
<text text-anchor="start" x="156.432" y="-1043.2" font-family="Helvetica Bold" font-size="16.00">Store_ID</text>
<polygon fill="none" stroke="black" points="323.932,-1033 323.932,-1061 427.932,-1061 427.932,-1033 323.932,-1033"/>
<text text-anchor="start" x="367.432" y="-1043.2" font-family="Helvetica Italic" font-size="16.00">Int</text>
<polygon fill="none" stroke="black" points="53.9321,-1005 53.9321,-1033 323.932,-1033 323.932,-1005 53.9321,-1005"/>
<text text-anchor="start" x="140.432" y="-1015.2" font-family="Helvetica Bold" font-size="16.00">StoreVersion</text>
<polygon fill="none" stroke="black" points="323.932,-1005 323.932,-1033 427.932,-1033 427.932,-1005 323.932,-1005"/>
<text text-anchor="start" x="347.932" y="-1015.2" font-family="Helvetica Italic" font-size="16.00">Varchar</text>
<polygon fill="none" stroke="black" points="53.9321,-977 53.9321,-1005 323.932,-1005 323.932,-977 53.9321,-977"/>
<text text-anchor="start" x="166.432" y="-987.2" font-family="Helvetica Bold" font-size="16.00">IsTest</text>
<polygon fill="none" stroke="black" points="323.932,-977 323.932,-1005 427.932,-1005 427.932,-977 323.932,-977"/>
<text text-anchor="start" x="345.932" y="-987.2" font-family="Helvetica Italic" font-size="16.00">Boolean</text>
<polygon fill="none" stroke="black" points="53.9321,-949 53.9321,-977 323.932,-977 323.932,-949 53.9321,-949"/>
<text text-anchor="start" x="155.932" y="-959.2" font-family="Helvetica Bold" font-size="16.00">IsHidden</text>
<polygon fill="none" stroke="black" points="323.932,-949 323.932,-977 427.932,-977 427.932,-949 323.932,-949"/>
<text text-anchor="start" x="345.932" y="-959.2" font-family="Helvetica Italic" font-size="16.00">Boolean</text>
<polygon fill="none" stroke="black" points="53.9321,-921 53.9321,-949 323.932,-949 323.932,-921 53.9321,-921"/>
<text text-anchor="start" x="150.932" y="-931.2" font-family="Helvetica Bold" font-size="16.00">DataIsFed</text>
<polygon fill="none" stroke="black" points="323.932,-921 323.932,-949 427.932,-949 427.932,-921 323.932,-921"/>
<text text-anchor="start" x="345.932" y="-931.2" font-family="Helvetica Italic" font-size="16.00">Boolean</text>
<polygon fill="none" stroke="black" points="53.9321,-893 53.9321,-921 323.932,-921 323.932,-893 53.9321,-893"/>
<text text-anchor="start" x="126.932" y="-903.2" font-family="Helvetica Bold" font-size="16.00">TransactionDate</text>
<polygon fill="none" stroke="black" points="323.932,-893 323.932,-921 427.932,-921 427.932,-893 323.932,-893"/>
<text text-anchor="start" x="329.432" y="-903.2" font-family="Helvetica Italic" font-size="16.00">SS_Datetime</text>
<polygon fill="none" stroke="black" points="53.9321,-865 53.9321,-893 323.932,-893 323.932,-865 53.9321,-865"/>
<text text-anchor="start" x="111.432" y="-875.2" font-family="Helvetica Bold" font-size="16.00">ProcessorResponse</text>
<polygon fill="none" stroke="black" points="323.932,-865 323.932,-893 427.932,-893 427.932,-865 323.932,-865"/>
<text text-anchor="start" x="328.932" y="-875.2" font-family="Helvetica Italic" font-size="16.00">Varchar(200)</text>
<polygon fill="none" stroke="black" points="53.9321,-837 53.9321,-865 323.932,-865 323.932,-837 53.9321,-837"/>
<text text-anchor="start" x="59.4321" y="-847.2" font-family="Helvetica Bold" font-size="16.00">ShiptoShippingServiceDescription</text>
<polygon fill="none" stroke="black" points="323.932,-837 323.932,-865 427.932,-865 427.932,-837 323.932,-837"/>
<text text-anchor="start" x="328.932" y="-847.2" font-family="Helvetica Italic" font-size="16.00">Varchar(200)</text>
<polygon fill="none" stroke="black" points="53.9321,-809 53.9321,-837 323.932,-837 323.932,-809 53.9321,-809"/>
<text text-anchor="start" x="140.432" y="-819.2" font-family="Helvetica Bold" font-size="16.00">ProductTotal</text>
<polygon fill="none" stroke="black" points="323.932,-809 323.932,-837 427.932,-837 427.932,-809 323.932,-809"/>
<text text-anchor="start" x="342.932" y="-819.2" font-family="Helvetica Italic" font-size="16.00">Currency</text>
<polygon fill="none" stroke="black" points="53.9321,-781 53.9321,-809 323.932,-809 323.932,-781 53.9321,-781"/>
<text text-anchor="start" x="157.432" y="-791.2" font-family="Helvetica Bold" font-size="16.00">TaxTotal</text>
<polygon fill="none" stroke="black" points="323.932,-781 323.932,-809 427.932,-809 427.932,-781 323.932,-781"/>
<text text-anchor="start" x="342.932" y="-791.2" font-family="Helvetica Italic" font-size="16.00">Currency</text>
<polygon fill="none" stroke="black" points="53.9321,-753 53.9321,-781 323.932,-781 323.932,-753 53.9321,-753"/>
<text text-anchor="start" x="137.432" y="-763.2" font-family="Helvetica Bold" font-size="16.00">ShippingTotal</text>
<polygon fill="none" stroke="black" points="323.932,-753 323.932,-781 427.932,-781 427.932,-753 323.932,-753"/>
<text text-anchor="start" x="342.932" y="-763.2" font-family="Helvetica Italic" font-size="16.00">Currency</text>
<polygon fill="none" stroke="black" points="53.9321,-725 53.9321,-753 323.932,-753 323.932,-725 53.9321,-725"/>
<text text-anchor="start" x="149.432" y="-735.2" font-family="Helvetica Bold" font-size="16.00">OrderTotal</text>
<polygon fill="none" stroke="black" points="323.932,-725 323.932,-753 427.932,-753 427.932,-725 323.932,-725"/>
<text text-anchor="start" x="342.932" y="-735.2" font-family="Helvetica Italic" font-size="16.00">Currency</text>
<polygon fill="none" stroke="black" points="53.9321,-697 53.9321,-725 323.932,-725 323.932,-697 53.9321,-697"/>
<text text-anchor="start" x="104.432" y="-707.2" font-family="Helvetica Bold" font-size="16.00">PaymentGatewayType</text>
<polygon fill="none" stroke="black" points="323.932,-697 323.932,-725 427.932,-725 427.932,-697 323.932,-697"/>
<text text-anchor="start" x="328.932" y="-707.2" font-family="Helvetica Italic" font-size="16.00">Varchar(100)</text>
<polygon fill="none" stroke="black" points="53.9321,-669 53.9321,-697 323.932,-697 323.932,-669 53.9321,-669"/>
<text text-anchor="start" x="144.432" y="-679.2" font-family="Helvetica Bold" font-size="16.00">ReceiptURL</text>
<polygon fill="none" stroke="black" points="323.932,-669 323.932,-697 427.932,-697 427.932,-669 323.932,-669"/>
<text text-anchor="start" x="328.932" y="-679.2" font-family="Helvetica Italic" font-size="16.00">Varchar(255)</text>
<polygon fill="none" stroke="black" points="53.9321,-641 53.9321,-669 323.932,-669 323.932,-641 53.9321,-641"/>
<text text-anchor="start" x="142.932" y="-651.2" font-family="Helvetica Bold" font-size="16.00">OrderStatus</text>
<polygon fill="none" stroke="black" points="323.932,-641 323.932,-669 427.932,-669 427.932,-641 323.932,-641"/>
<text text-anchor="start" x="328.932" y="-651.2" font-family="Helvetica Italic" font-size="16.00">Varchar(255)</text>
<polygon fill="none" stroke="black" points="53.9321,-613 53.9321,-641 323.932,-641 323.932,-613 53.9321,-613"/>
<text text-anchor="start" x="144.432" y="-623.2" font-family="Helvetica Bold" font-size="16.00">CustomerIP</text>
<polygon fill="none" stroke="black" points="323.932,-613 323.932,-641 427.932,-641 427.932,-613 323.932,-613"/>
<text text-anchor="start" x="347.932" y="-623.2" font-family="Helvetica Italic" font-size="16.00">Varchar</text>
<polygon fill="none" stroke="black" points="53.9321,-585 53.9321,-613 323.932,-613 323.932,-585 53.9321,-585"/>
<text text-anchor="start" x="150.432" y="-595.2" font-family="Helvetica Bold" font-size="16.00">Response</text>
<polygon fill="none" stroke="black" points="323.932,-585 323.932,-613 427.932,-613 427.932,-585 323.932,-585"/>
<text text-anchor="start" x="360.932" y="-595.2" font-family="Helvetica Italic" font-size="16.00">Text</text>
<polygon fill="none" stroke="black" points="53.9321,-557 53.9321,-585 323.932,-585 323.932,-557 53.9321,-557"/>
<text text-anchor="start" x="150.932" y="-567.2" font-family="Helvetica Bold" font-size="16.00">MemberID</text>
<polygon fill="none" stroke="black" points="323.932,-557 323.932,-585 427.932,-585 427.932,-557 323.932,-557"/>
<text text-anchor="start" x="334.432" y="-567.2" font-family="Helvetica Italic" font-size="16.00">ForeignKey</text>
<polygon fill="none" stroke="black" points="53.9321,-529 53.9321,-557 323.932,-557 323.932,-529 53.9321,-529"/>
<text text-anchor="start" x="126.432" y="-539.2" font-family="Helvetica Bold" font-size="16.00">BillingAddressID</text>
<polygon fill="none" stroke="black" points="323.932,-529 323.932,-557 427.932,-557 427.932,-529 323.932,-529"/>
<text text-anchor="start" x="334.432" y="-539.2" font-family="Helvetica Italic" font-size="16.00">ForeignKey</text>
<polygon fill="none" stroke="black" points="53.9321,-501 53.9321,-529 323.932,-529 323.932,-501 53.9321,-501"/>
<text text-anchor="start" x="115.932" y="-511.2" font-family="Helvetica Bold" font-size="16.00">ShippingAddressID</text>
<polygon fill="none" stroke="black" points="323.932,-501 323.932,-529 427.932,-529 427.932,-501 323.932,-501"/>
<text text-anchor="start" x="334.432" y="-511.2" font-family="Helvetica Italic" font-size="16.00">ForeignKey</text>
</g>
<!-- OrderAddress -->
<g id="node7" class="node"><title>OrderAddress</title>
<polygon fill="#d4d6d8" stroke="none" points="177.932,-419 177.932,-448 382.932,-448 382.932,-419 177.932,-419"/>
<polygon fill="none" stroke="black" points="177.932,-419 177.932,-448 382.932,-448 382.932,-419 177.932,-419"/>
<text text-anchor="start" x="226.932" y="-430.7" font-family="Helvetica Bold" font-weight="bold" font-size="16.00" fill="#0073c1">OrderAddress</text>
<polygon fill="none" stroke="black" points="177.932,-391 177.932,-419 278.932,-419 278.932,-391 177.932,-391"/>
<text text-anchor="start" x="206.932" y="-401.2" font-family="Helvetica Bold" font-size="16.00">Name</text>
<polygon fill="none" stroke="black" points="278.932,-391 278.932,-419 382.932,-419 382.932,-391 278.932,-391"/>
<text text-anchor="start" x="283.932" y="-401.2" font-family="Helvetica Italic" font-size="16.00">Varchar(100)</text>
<polygon fill="none" stroke="black" points="177.932,-363 177.932,-391 278.932,-391 278.932,-363 177.932,-363"/>
<text text-anchor="start" x="191.932" y="-373.2" font-family="Helvetica Bold" font-size="16.00">Company</text>
<polygon fill="none" stroke="black" points="278.932,-363 278.932,-391 382.932,-391 382.932,-363 278.932,-363"/>
<text text-anchor="start" x="302.932" y="-373.2" font-family="Helvetica Italic" font-size="16.00">Varchar</text>
<polygon fill="none" stroke="black" points="177.932,-335 177.932,-363 278.932,-363 278.932,-335 177.932,-335"/>
<text text-anchor="start" x="191.932" y="-345.2" font-family="Helvetica Bold" font-size="16.00">Address1</text>
<polygon fill="none" stroke="black" points="278.932,-335 278.932,-363 382.932,-363 382.932,-335 278.932,-335"/>
<text text-anchor="start" x="283.932" y="-345.2" font-family="Helvetica Italic" font-size="16.00">Varchar(200)</text>
<polygon fill="none" stroke="black" points="177.932,-307 177.932,-335 278.932,-335 278.932,-307 177.932,-307"/>
<text text-anchor="start" x="191.932" y="-317.2" font-family="Helvetica Bold" font-size="16.00">Address2</text>
<polygon fill="none" stroke="black" points="278.932,-307 278.932,-335 382.932,-335 382.932,-307 278.932,-307"/>
<text text-anchor="start" x="283.932" y="-317.2" font-family="Helvetica Italic" font-size="16.00">Varchar(200)</text>
<polygon fill="none" stroke="black" points="177.932,-279 177.932,-307 278.932,-307 278.932,-279 177.932,-279"/>
<text text-anchor="start" x="213.432" y="-289.2" font-family="Helvetica Bold" font-size="16.00">City</text>
<polygon fill="none" stroke="black" points="278.932,-279 278.932,-307 382.932,-307 382.932,-279 278.932,-279"/>
<text text-anchor="start" x="283.932" y="-289.2" font-family="Helvetica Italic" font-size="16.00">Varchar(100)</text>
<polygon fill="none" stroke="black" points="177.932,-251 177.932,-279 278.932,-279 278.932,-251 177.932,-251"/>
<text text-anchor="start" x="208.432" y="-261.2" font-family="Helvetica Bold" font-size="16.00">State</text>
<polygon fill="none" stroke="black" points="278.932,-251 278.932,-279 382.932,-279 382.932,-251 278.932,-251"/>
<text text-anchor="start" x="283.932" y="-261.2" font-family="Helvetica Italic" font-size="16.00">Varchar(100)</text>
<polygon fill="none" stroke="black" points="177.932,-223 177.932,-251 278.932,-251 278.932,-223 177.932,-223"/>
<text text-anchor="start" x="184.432" y="-233.2" font-family="Helvetica Bold" font-size="16.00">PostalCode</text>
<polygon fill="none" stroke="black" points="278.932,-223 278.932,-251 382.932,-251 382.932,-223 278.932,-223"/>
<text text-anchor="start" x="288.432" y="-233.2" font-family="Helvetica Italic" font-size="16.00">Varchar(10)</text>
<polygon fill="none" stroke="black" points="177.932,-195 177.932,-223 278.932,-223 278.932,-195 177.932,-195"/>
<text text-anchor="start" x="197.932" y="-205.2" font-family="Helvetica Bold" font-size="16.00">Country</text>
<polygon fill="none" stroke="black" points="278.932,-195 278.932,-223 382.932,-223 382.932,-195 278.932,-195"/>
<text text-anchor="start" x="283.932" y="-205.2" font-family="Helvetica Italic" font-size="16.00">Varchar(100)</text>
<polygon fill="none" stroke="black" points="177.932,-167 177.932,-195 278.932,-195 278.932,-167 177.932,-167"/>
<text text-anchor="start" x="203.932" y="-177.2" font-family="Helvetica Bold" font-size="16.00">Phone</text>
<polygon fill="none" stroke="black" points="278.932,-167 278.932,-195 382.932,-195 382.932,-167 278.932,-167"/>
<text text-anchor="start" x="288.432" y="-177.2" font-family="Helvetica Italic" font-size="16.00">Varchar(20)</text>
<polygon fill="none" stroke="black" points="177.932,-139 177.932,-167 278.932,-167 278.932,-139 177.932,-139"/>
<text text-anchor="start" x="199.432" y="-149.2" font-family="Helvetica Bold" font-size="16.00">OrderID</text>
<polygon fill="none" stroke="black" points="278.932,-139 278.932,-167 382.932,-167 382.932,-139 278.932,-139"/>
<text text-anchor="start" x="289.432" y="-149.2" font-family="Helvetica Italic" font-size="16.00">ForeignKey</text>
<polygon fill="none" stroke="black" points="177.932,-111 177.932,-139 278.932,-139 278.932,-111 177.932,-111"/>
<text text-anchor="start" x="183.432" y="-121.2" font-family="Helvetica Bold" font-size="16.00">CustomerID</text>
<polygon fill="none" stroke="black" points="278.932,-111 278.932,-139 382.932,-139 382.932,-111 278.932,-111"/>
<text text-anchor="start" x="289.432" y="-121.2" font-family="Helvetica Italic" font-size="16.00">ForeignKey</text>
</g>
<!-- Order&#45;&gt;OrderAddress -->
<g id="edge15" class="edge"><title>Order&#45;&gt;OrderAddress</title>
<path fill="none" stroke="black" d="M389.48,-501.358C391.083,-495.225 392.571,-489.102 393.932,-483 399.401,-458.474 395.43,-433.902 386.297,-410.764"/>
<polygon fill="black" stroke="black" points="389.392,-409.101 382.239,-401.286 382.957,-411.856 389.392,-409.101"/>
<text text-anchor="middle" x="484.932" y="-471.3" font-family="Times,serif" font-size="14.00">BillingAddress (has_one)</text>
</g>
<!-- Order&#45;&gt;OrderAddress -->
<g id="edge16" class="edge"><title>Order&#45;&gt;OrderAddress</title>
<path fill="none" stroke="black" d="M54.4027,-605.971C31.1628,-557.857 26.1084,-508.507 60.9321,-467 90.5196,-431.734 124.141,-473.786 162.932,-449 164.94,-447.717 166.922,-446.386 168.88,-445.011"/>
<polygon fill="black" stroke="black" points="171.396,-447.5 177.304,-438.705 167.201,-441.896 171.396,-447.5"/>
<text text-anchor="middle" x="158.432" y="-471.3" font-family="Times,serif" font-size="14.00">ShippingAddress (has_one)</text>
</g>
<!-- Order&#45;&gt;OrderDetail -->
<g id="edge17" class="edge"><title>Order&#45;&gt;OrderDetail</title>
<path fill="none" stroke="black" d="M149.922,-1118.9C154.474,-1130.85 160.717,-1142.29 168.932,-1153 186.009,-1175.27 204.382,-1161.06 235.272,-1171.53"/>
<polygon fill="black" stroke="black" points="234.215,-1174.88 244.797,-1175.41 236.857,-1168.4 234.215,-1174.88"/>
<text text-anchor="middle" x="237.432" y="-1141.3" font-family="Times,serif" font-size="14.00">Details (has_many)</text>
</g>
<!-- Member -->
<g id="node13" class="node"><title>Member</title>
<text text-anchor="middle" x="96.9321" y="-37.2" font-family="Times,serif" font-size="16.00">Member</text>
</g>
<!-- Order&#45;&gt;Member -->
<g id="edge14" class="edge"><title>Order&#45;&gt;Member</title>
<path fill="none" stroke="black" d="M54.4017,-514.485C46.1054,-492.865 39.1084,-470.927 33.9321,-449 -0.581937,-302.796 -20.3889,-251.057 33.9321,-111 40.6354,-93.7166 53.9087,-78.1136 66.5502,-66.1351"/>
<polygon fill="black" stroke="black" points="69.197,-68.461 74.2754,-59.1626 64.5069,-63.2646 69.197,-68.461"/>
<text text-anchor="middle" x="100.932" y="-276.3" font-family="Times,serif" font-size="14.00">Member (has_one)</text>
</g>
<!-- OrderAddress&#45;&gt;Order -->
<g id="edge18" class="edge"><title>OrderAddress&#45;&gt;Order</title>
<path fill="none" stroke="black" d="M267.551,-448.623C266.524,-462.524 265.467,-476.838 264.393,-491.378"/>
<polygon fill="black" stroke="black" points="260.893,-491.247 263.647,-501.478 267.874,-491.763 260.893,-491.247"/>
<text text-anchor="middle" x="323.432" y="-471.3" font-family="Times,serif" font-size="14.00">Order (has_one)</text>
</g>
<!-- OrderAddress&#45;&gt;Member -->
<g id="edge19" class="edge"><title>OrderAddress&#45;&gt;Member</title>
<path fill="none" stroke="black" d="M177.451,-129.244C172.623,-123.02 167.771,-116.914 162.932,-111 150.208,-95.4491 134.737,-79.1557 121.973,-66.3091"/>
<polygon fill="black" stroke="black" points="124.366,-63.753 114.812,-59.1751 119.426,-68.7123 124.366,-63.753"/>
<text text-anchor="middle" x="217.932" y="-81.3" font-family="Times,serif" font-size="14.00">Customer (has_one)</text>
</g>
<!-- OrderDetail&#45;&gt;ProductPage -->
<g id="edge20" class="edge"><title>OrderDetail&#45;&gt;ProductPage</title>
<path fill="none" stroke="black" d="M310.446,-1312.51C309.871,-1324.73 312.024,-1336.79 318.932,-1347 370.163,-1422.75 468.472,-1458.66 549.278,-1475.67"/>
<polygon fill="black" stroke="black" points="549.049,-1479.2 559.545,-1477.76 550.44,-1472.34 549.049,-1479.2"/>
<text text-anchor="middle" x="383.932" y="-1335.3" font-family="Times,serif" font-size="14.00">Product (has_one)</text>
</g>
<!-- OrderDetail&#45;&gt;OptionItem -->
<g id="edge22" class="edge"><title>OrderDetail&#45;&gt;OptionItem</title>
<path fill="none" stroke="black" d="M420.831,-1164.72C425.265,-1160.76 429.652,-1156.83 433.932,-1153 511.008,-1083.97 596.606,-1006.77 666.924,-943.217"/>
<polygon fill="black" stroke="black" points="418.469,-1162.13 413.338,-1171.4 423.13,-1167.36 418.469,-1162.13"/>
<polygon fill="black" stroke="black" points="669.477,-945.627 674.548,-936.325 664.783,-940.434 669.477,-945.627"/>
<text text-anchor="middle" x="523.432" y="-1141.3" font-family="Times,serif" font-size="14.00">Options (many_many)</text>
</g>
<!-- OrderDetail&#45;&gt;Order -->
<g id="edge21" class="edge"><title>OrderDetail&#45;&gt;Order</title>
<path fill="none" stroke="black" d="M319.725,-1171.44C316.89,-1158.47 313.765,-1144.17 310.444,-1128.98"/>
<polygon fill="black" stroke="black" points="313.789,-1127.89 308.234,-1118.87 306.951,-1129.39 313.789,-1127.89"/>
<text text-anchor="middle" x="372.432" y="-1141.3" font-family="Times,serif" font-size="14.00">Order (has_one)</text>
</g>
<!-- ProductImage&#45;&gt;Image -->
<g id="edge23" class="edge"><title>ProductImage&#45;&gt;Image</title>
<path fill="none" stroke="black" d="M1364.85,-1171.47C1364.08,-1165.24 1363.42,-1159.01 1362.93,-1153 1353.53,-1036.24 1358.03,-896.329 1360.58,-838.293"/>
<polygon fill="black" stroke="black" points="1364.09,-838.27 1361.05,-828.12 1357.09,-837.949 1364.09,-838.27"/>
<text text-anchor="middle" x="1421.93" y="-1141.3" font-family="Times,serif" font-size="14.00">Image (has_one)</text>
</g>
</g>
</svg>
